# xmcd
#
# Track frame offsets: 
#        150
#        17041
#        35854
#        52501
#        69414
#        89858
#        108397
#        127929
#        145578
#        163578
#        183308
#        203810
#        220775
#        236599
#        258447
#        273694
#
# Disc length: 3866 seconds
#
# Revision: 0
# Processed by: cddbd v1.5.2PL0 Copyright (c) Steve Scherf et al.
# Submitted via: ExactAudioCopy v1.0b1
#
DISCID=e40f1810
DTITLE=Kuuntele - Ytimeen
DYEAR=2011
DGENRE=Hip-Hop
TTITLE0=Kuuntele
TTITLE1=Kummenee
TTITLE2=Syyp‰‰
TTITLE3=Myyntiin taidetta
TTITLE4=Etsi
TTITLE5=Kaukana kotoa
TTITLE6=Muut ei uskalla
TTITLE7=F41.2
TTITLE8=Ne tiet‰‰, jotka tiet‰‰
TTITLE9=Vittu mit‰ paskaa
TTITLE10=R‰ppio
TTITLE11=Vaimennettu ‰‰ni
TTITLE12=Humppawr‰ppi 2
TTITLE13=Korjaa huominen
TTITLE14=J‰lki
TTITLE15=Ytimeen
EXTD=
EXTT0=
EXTT1=
EXTT2=
EXTT3=
EXTT4=
EXTT5=
EXTT6=
EXTT7=
EXTT8=
EXTT9=
EXTT10=
EXTT11=
EXTT12=
EXTT13=
EXTT14=
EXTT15=
PLAYORDER=
